<?xml version="1.0" encoding="utf-8"?>
<!-- Generator: Adobe Illustrator 24.0.1, SVG Export Plug-In . SVG Version: 6.00 Build 0)  -->
<svg version="1.1" id="Слой_1" xmlns="http://www.w3.org/2000/svg" xmlns:xlink="http://www.w3.org/1999/xlink" x="0px" y="0px"
	 viewBox="0 0 350 350" style="enable-background:new 0 0 350 350;" xml:space="preserve">
<style type="text/css">
	.st0{fill:#9eff00;}
</style>
<g>
	<path class="st0" d="M175,97.9c-14.2,0-25.7-11.5-25.7-25.7V25.7C149.3,11.5,160.8,0,175,0c14.2,0,25.7,11.5,25.7,25.7v46.4
		C200.7,86.3,189.2,97.9,175,97.9z"/>
	<path class="st0" d="M247.8,127.9c-6.6,0-13.2-2.5-18.2-7.5c-10-10.1-10-26.3,0-36.4l32.8-32.8c10.1-10,26.3-10,36.4,0
		c10,10.1,10,26.3,0,36.4L266,120.4C261,125.4,254.4,127.9,247.8,127.9z"/>
	<path class="st0" d="M324.3,200.7h-46.3c-14.2,0-25.7-11.5-25.7-25.7c0-14.2,11.5-25.7,25.7-25.7h46.3c14.2,0,25.7,11.5,25.7,25.7
		C350,189.2,338.5,200.7,324.3,200.7z"/>
	<path class="st0" d="M280.5,306.3c-6.6,0-13.2-2.5-18.2-7.5L229.6,266c-10-10.1-10-26.3,0-36.4c10.1-10,26.3-10,36.4,0l32.8,32.8
		c10,10.1,10,26.3,0,36.4C293.7,303.8,287.1,306.3,280.5,306.3z"/>
	<path class="st0" d="M175,350c-14.2,0-25.7-11.5-25.7-25.7v-46.3c0-14.2,11.5-25.7,25.7-25.7c14.2,0,25.7,11.5,25.7,25.7v46.3
		C200.7,338.5,189.2,350,175,350z"/>
	<path class="st0" d="M69.5,306.3c-6.6,0-13.2-2.5-18.2-7.5c-10.1-10.1-10.1-26.3,0-36.4l32.8-32.8c10.1-10,26.3-10,36.4,0
		c10.1,10.1,10.1,26.3,0,36.4l-32.8,32.8C82.6,303.8,76,306.3,69.5,306.3z"/>
	<path class="st0" d="M72.1,200.7H25.7C11.5,200.7,0,189.2,0,175c0-14.2,11.5-25.7,25.7-25.7h46.3c14.2,0,25.7,11.5,25.7,25.7
		C97.8,189.2,86.3,200.7,72.1,200.7z"/>
	<path class="st0" d="M102.2,127.9c-6.6,0-13.2-2.5-18.2-7.5L51.3,87.7c-10.1-10.1-10.1-26.3,0-36.4c10.1-10,26.3-10,36.4,0
		L120.4,84c10.1,10.1,10.1,26.3,0,36.4C115.4,125.4,108.8,127.9,102.2,127.9z"/>
</g>
	<animateTransform attributeName="transform"
                          attributeType="XML"
                          type="rotate"
                          from="0"
                          to="360"
                          dur="6s"
                          repeatCount="indefinite">
  </animateTransform>
</svg>
