<svg id="Слой_1" data-name="Слой 1" xmlns="http://www.w3.org/2000/svg" viewBox="0 0 42.9 32.94"><defs><style>.cls-1{fill:#9eff00;}</style></defs><title>logo-dino</title><path class="cls-1" d="M0,19.51V22H6.72v1.22h3.67v1.25h2.16c.18,0,.25,0,.24.24v1h1.28v1c0,.19,0,.24.24.24h3.43v3.66H19v1.25h1.21v1.21H25V29.78H22.59v-3H26v4.91h1.45v1.2h4.88V29.78H29.92V25.61h1.2v-1.2H33.6v1.17h4.15v-2.4h4.89V20.73h-3v-1.2H38.45V12.19H37.24V9H41V7.31H38.74V5.58H42.9V1.22H39.46V0H36V1.17H33.58V2.42H32.35v9.77H28.7V11H26.23v1.17H22.58v1.22H20.15v1.23H18.93v1.22H16.5v1.21H15.24V18.3H3.07v1.23ZM37.38,2.81H38.6V4H37.38V2.81ZM36,22h1.7v1.2H36V22Z" transform="translate(0 0)"/></svg>